<svg width="98" height="96" viewBox="0 0 98 96" fill="none" xmlns="http://www.w3.org/2000/svg">
<g filter="url(#filter0_d_607_695)">
<path d="M24 30C24 24.4772 28.4772 20 34 20H64C69.5228 20 74 24.4772 74 30V58C74 63.5228 69.5228 68 64 68H34C28.4772 68 24 63.5228 24 58V30Z" fill="white"/>
<ellipse rx="4.05427" ry="4.14143" transform="matrix(0.856565 0.51604 -0.48413 0.874996 56.0283 37.1942)" fill="#C4C4C4"/>
<ellipse rx="4.05427" ry="4.14143" transform="matrix(0.856565 0.51604 -0.48413 0.874996 56.0283 50.5079)" fill="#C4C4C4"/>
<ellipse rx="4.05427" ry="4.14143" transform="matrix(0.856565 0.51604 -0.48413 0.874996 41.811 37.1942)" fill="#C4C4C4"/>
<ellipse rx="4.05427" ry="4.14143" transform="matrix(0.856565 0.51604 -0.48413 0.874996 41.811 37.1942)" fill="#C4C4C4"/>
<ellipse rx="4.05427" ry="4.14143" transform="matrix(0.856565 0.51604 -0.48413 0.874996 41.811 50.5079)" fill="#C4C4C4"/>
</g>
<defs>
<filter id="filter0_d_607_695" x="0" y="0" width="98" height="96" filterUnits="userSpaceOnUse" color-interpolation-filters="sRGB">
<feFlood flood-opacity="0" result="BackgroundImageFix"/>
<feColorMatrix in="SourceAlpha" type="matrix" values="0 0 0 0 0 0 0 0 0 0 0 0 0 0 0 0 0 0 127 0" result="hardAlpha"/>
<feOffset dy="4"/>
<feGaussianBlur stdDeviation="12"/>
<feComposite in2="hardAlpha" operator="out"/>
<feColorMatrix type="matrix" values="0 0 0 0 0 0 0 0 0 0 0 0 0 0 0 0 0 0 0.15 0"/>
<feBlend mode="normal" in2="BackgroundImageFix" result="effect1_dropShadow_607_695"/>
<feBlend mode="normal" in="SourceGraphic" in2="effect1_dropShadow_607_695" result="shape"/>
</filter>
</defs>
</svg>
