<svg width="66" height="67" viewBox="0 0 66 67" fill="none" xmlns="http://www.w3.org/2000/svg">
<g filter="url(#filter0_d_611_871)">
<rect x="4" width="58" height="59" rx="29" fill="#FF0000" fill-opacity="0.71" shape-rendering="crispEdges"/>
<path d="M29.2173 14.2742C32.1155 14.2742 34.895 15.4453 36.9443 17.53C38.9936 19.6146 40.1449 22.442 40.1449 25.3901C40.1449 28.1435 39.153 30.6745 37.5223 32.624L37.9762 33.0858H39.3043L47.7101 41.6365L45.1883 44.2017L36.7825 35.651V34.3L36.3286 33.8382C34.4121 35.4971 31.924 36.5061 29.2173 36.5061C26.3192 36.5061 23.5397 35.3349 21.4904 33.2503C19.4411 31.1656 18.2898 28.3382 18.2898 25.3901C18.2898 22.442 19.4411 19.6146 21.4904 17.53C23.5397 15.4453 26.3192 14.2742 29.2173 14.2742ZM29.2173 17.6945C25.0144 17.6945 21.6521 21.1148 21.6521 25.3901C21.6521 29.6655 25.0144 33.0858 29.2173 33.0858C33.4202 33.0858 36.7825 29.6655 36.7825 25.3901C36.7825 21.1148 33.4202 17.6945 29.2173 17.6945Z" fill="white"/>
</g>
<defs>
<filter id="filter0_d_611_871" x="0" y="0" width="66" height="67" filterUnits="userSpaceOnUse" color-interpolation-filters="sRGB">
<feFlood flood-opacity="0" result="BackgroundImageFix"/>
<feColorMatrix in="SourceAlpha" type="matrix" values="0 0 0 0 0 0 0 0 0 0 0 0 0 0 0 0 0 0 127 0" result="hardAlpha"/>
<feOffset dy="4"/>
<feGaussianBlur stdDeviation="2"/>
<feComposite in2="hardAlpha" operator="out"/>
<feColorMatrix type="matrix" values="0 0 0 0 0 0 0 0 0 0 0 0 0 0 0 0 0 0 0.25 0"/>
<feBlend mode="normal" in2="BackgroundImageFix" result="effect1_dropShadow_611_871"/>
<feBlend mode="normal" in="SourceGraphic" in2="effect1_dropShadow_611_871" result="shape"/>
</filter>
</defs>
</svg>
